<svg width="860" height="179" viewBox="0 0 860 179" fill="none" xmlns="http://www.w3.org/2000/svg">
<path fill-rule="evenodd" clip-rule="evenodd" d="M55.44 129.317C32.49 143.837 18.14 161.917 0 178.667C0 178.667 3.08 176.897 11.95 170.917C64.79 124.057 93.61 150.917 138.6 168.067C154.15 173.997 173.76 179.737 200.26 176.297C189.86 175.147 173.6 169.077 157.55 161.297C112.57 139.367 90.64 107.037 55.44 129.317Z" fill="#1A58A6"/>
<path fill-rule="evenodd" clip-rule="evenodd" d="M235.17 117.757C212.67 131.857 199.31 151.487 174.41 162.257C179.41 164.387 184.89 166.277 189.81 167.877C212.26 156.977 227.51 136.767 252.25 128.827C280.71 119.027 302.95 142.157 327.59 149.677C329.07 150.127 329.87 150.347 329.87 150.347C303.75 134.807 273.44 94.9375 235.17 117.757Z" fill="#1A58A6"/>
<path fill-rule="evenodd" clip-rule="evenodd" d="M94.32 63.6575C106.4 63.6675 116.21 53.8775 116.22 41.7975C116.23 29.7175 106.44 19.9075 94.36 19.8975C82.28 19.8875 72.47 29.6775 72.46 41.7575C72.46 41.7675 72.46 41.7775 72.46 41.7875C72.46 53.8675 82.25 63.6575 94.32 63.6575ZM94.32 26.8975C102.6 26.8975 109.32 33.6175 109.32 41.8975C109.32 50.1775 102.6 56.8975 94.32 56.8975C86.04 56.8975 79.32 50.1775 79.32 41.8975C79.32 33.6175 86.04 26.8975 94.32 26.8975Z" fill="#1A58A6"/>
<path fill-rule="evenodd" clip-rule="evenodd" d="M80.52 84.1575C95.05 82.4875 112.53 80.6275 124.78 79.2875L146.33 97.9975L147.41 150.708L169.77 159.577L196.63 140.678L196.95 97.6175L215.41 79.1675C227.71 80.4975 245.82 82.4975 260.81 84.1675C286.11 86.9675 298.81 64.3375 300.81 50.8375C303.06 35.0875 298.01 21.7575 285.81 11.7075C273.61 1.6575 238.31 0.9275 225.28 0.0375C224.6 -0.0125 223.91 -0.0125 223.23 0.0375H118.32C117.64 -0.0125 116.95 -0.0125 116.27 0.0375C103.27 1.0075 67.94 1.7075 55.71 11.7875C43.48 21.8675 38.4 35.1175 40.71 50.9175C42.53 64.3275 55.24 86.9575 80.52 84.1575ZM226.67 7.4975C238.07 8.2975 269.07 8.9175 279.85 17.2475C290.63 25.5775 295.07 36.6275 293.08 49.6775C291.41 60.7975 280.23 79.5575 258.08 77.2375C235.93 74.9175 205.77 71.8175 205.77 71.8175C205.77 71.8175 184.97 69.9875 188.31 45.3575C191.64 20.7275 215.26 6.7275 226.64 7.5275L226.67 7.4975ZM204.64 7.4975C191.93 16.4275 183.53 30.2675 181.46 45.6575C177.66 75.3675 201.19 77.6175 201.19 77.6175L206.19 78.1675L189.77 94.5875L189.45 136.938L168.84 151.418L154.47 145.788L153.39 94.5975H153.31L134.48 78.2275L140.11 77.6075C140.11 77.6075 163.62 75.3575 159.84 45.6475C157.76 30.2575 149.35 16.4275 136.64 7.4975H204.64ZM61.42 17.2775C72.2 8.9475 103.2 8.3275 114.61 7.5275C126.03 6.7275 149.61 20.7475 152.94 45.3575C156.27 69.9675 135.61 71.8575 135.61 71.8575C135.61 71.8575 105.46 74.9375 83.32 77.2775C61.18 79.6175 49.99 60.8275 48.32 49.7175C46.23 36.6675 50.66 25.5975 61.42 17.2775Z" fill="#1A58A6"/>
<path fill-rule="evenodd" clip-rule="evenodd" d="M246.96 63.6575C259.04 63.6675 268.85 53.8775 268.86 41.7975C268.87 29.7175 259.08 19.9075 247 19.8975C234.92 19.8875 225.11 29.6775 225.1 41.7575C225.1 41.7675 225.1 41.7775 225.1 41.7875C225.09 53.8675 234.88 63.6575 246.96 63.6575ZM246.96 26.8975C255.24 26.8975 261.96 33.6175 261.96 41.8975C261.96 50.1775 255.24 56.8975 246.96 56.8975C238.68 56.8975 231.96 50.1775 231.96 41.8975C231.96 33.6175 238.67 26.8975 246.96 26.8975Z" fill="#1A58A6"/>
<path d="M391.48 0.00744629L409.12 51.8874H409.33L426.03 0.00744629H449.38V75.4474H433.85V21.9874H433.64L415.15 75.4574H402.37L383.87 22.5174H383.66V75.4574H368.13V0.00744629H391.48Z" fill="#1A58A6"/>
<path d="M498.41 0.00744629L526.62 75.4474H509.4L503.69 58.6474H475.48L469.56 75.4474H452.86L481.39 0.00744629H498.41ZM499.35 46.2874L489.84 18.6074H489.63L479.8 46.2874H499.35Z" fill="#1A58A6"/>
<path d="M570.68 0.00744629C574.06 0.00744629 577.11 0.547446 579.82 1.64745C582.53 2.73745 584.86 4.23744 586.79 6.13744C588.73 8.03744 590.21 10.2374 591.23 12.7374C592.25 15.2374 592.76 17.9374 592.76 20.8174C592.76 25.2574 591.82 29.0974 589.96 32.3374C588.09 35.5774 585.05 38.0474 580.82 39.7374V39.9474C582.86 40.5075 584.55 41.3774 585.89 42.5374C587.23 43.6974 588.32 45.0774 589.17 46.6574C590.01 48.2474 590.63 49.9874 591.02 51.8874C591.41 53.7874 591.67 55.6874 591.81 57.5974C591.88 58.7974 591.95 60.2074 592.02 61.8274C592.09 63.4474 592.21 65.1074 592.39 66.7974C592.57 68.4874 592.85 70.0874 593.24 71.6074C593.63 73.1174 594.21 74.4074 594.98 75.4674H578.39C577.47 73.0774 576.91 70.2174 576.7 66.9074C576.49 63.5974 576.17 60.4274 575.75 57.3974C575.19 53.4574 573.99 50.5674 572.16 48.7274C570.33 46.8974 567.34 45.9774 563.18 45.9774H546.59V75.4574H530V0.00744629H570.68ZM564.76 34.1374C568.57 34.1374 571.42 33.2874 573.32 31.5974C575.22 29.9074 576.17 27.1574 576.17 23.3574C576.17 19.6974 575.22 17.0374 573.32 15.3774C571.42 13.7274 568.57 12.8974 564.76 12.8974H546.59V34.1374H564.76Z" fill="#1A58A6"/>
<path d="M619.71 0.00744629V75.4474H603.12V0.00744629H619.71Z" fill="#1A58A6"/>
<path d="M647.6 0.00744629L679.09 50.6174H679.3V0.00744629H694.83V75.4474H678.24L646.86 24.9374H646.65V75.4474H631.12V0.00744629H647.6Z" fill="#1A58A6"/>
<path d="M762.67 0.00744629V13.9574H722.83V30.1274H759.39V43.0174H722.83V61.5074H763.51V75.4574H706.24V0.00744629H762.67Z" fill="#1A58A6"/>
<path d="M368.12 110.767V96.7274H430.35V110.767H407.59V172.677H390.89V110.767H368.12Z" fill="#1A58A6"/>
<path d="M452.58 96.7274V125.877H483.32V96.7274H500.02V172.677H483.32V139.917H452.58V172.677H435.88V96.7274H452.58Z" fill="#1A58A6"/>
<path d="M528.22 96.7274V172.677H511.52V96.7274H528.22Z" fill="#1A58A6"/>
<path d="M556.3 96.7274L588 147.677H588.21V96.7274H603.85V172.677H587.15L555.56 121.827H555.35V172.677H539.71V96.7274H556.3Z" fill="#1A58A6"/>
<path d="M632.04 96.7274V128.217L661.72 96.7274H682.57L652.89 126.727L685.44 172.677H664.48L641.61 138.527L632.04 148.207V172.677H615.34V96.7274H632.04Z" fill="#1A58A6"/>
<path d="M705.65 96.7274V172.677H688.95V96.7274H705.65Z" fill="#1A58A6"/>
<path d="M733.73 96.7274L765.43 147.677H765.64V96.7274H781.28V172.677H764.58L732.99 121.827H732.78V172.677H717.14V96.7274H733.73Z" fill="#1A58A6"/>
<path d="M837.77 172.087C834.15 173.607 830.5 174.377 826.81 174.377C821 174.377 815.76 173.367 811.12 171.347C806.47 169.327 802.56 166.547 799.37 162.997C796.18 159.447 793.73 155.287 792.03 150.497C790.33 145.707 789.48 140.547 789.48 135.017C789.48 129.347 790.33 124.077 792.03 119.217C793.73 114.357 796.18 110.127 799.37 106.507C802.56 102.887 806.48 100.057 811.12 97.9975C815.76 95.9375 820.99 94.9075 826.81 94.9075C830.71 94.9075 834.49 95.4975 838.14 96.6675C841.79 97.8375 845.09 99.5575 848.03 101.827C850.97 104.097 853.4 106.897 855.32 110.227C857.23 113.557 858.41 117.397 858.83 121.717H842.87C841.87 117.467 839.96 114.267 837.13 112.147C834.29 110.017 830.85 108.957 826.81 108.957C823.05 108.957 819.86 109.687 817.24 111.137C814.62 112.587 812.49 114.537 810.86 116.987C809.23 119.437 808.04 122.217 807.3 125.337C806.56 128.457 806.18 131.687 806.18 135.017C806.18 138.207 806.55 141.317 807.3 144.327C808.05 147.347 809.23 150.057 810.86 152.467C812.49 154.877 814.62 156.807 817.24 158.267C819.86 159.717 823.05 160.447 826.81 160.447C832.34 160.447 836.61 159.047 839.63 156.247C842.64 153.447 844.4 149.387 844.9 144.067H828.09V131.617H860V172.677H849.36L847.66 164.057C844.68 167.887 841.38 170.567 837.77 172.087Z" fill="#1A58A6"/>
</svg>
